<svg xmlns="http://www.w3.org/2000/svg" width="572" height="215" viewBox="0 0 572 215">
  <g fill="#BF0000" fill-rule="nonzero">
    <path d="M571.6 41.5l-47 142.5c-5 15.2-16 23.7-30.2 23.7-8.9 0-17.1-3.3-23.3-9.4l8.7-13.5c4.2 3.7 8.1 5.4 13.3 5.4 7.3 0 10.8-3.1 14.4-12.9l2.9-7.9-45.4-128h19.4l34.8 101.8 32.9-101.8h19.5v.1zM428.4 158.2c-10.2 12.1-21.8 17.7-37 17.7-34.3 0-57.8-28.1-57.8-68.9 0-40.8 23.7-68.7 58.3-68.7 15.6 0 26.4 4.6 36.8 15.4l2.7-12.3h16.7v131.1h-16.7l-3-14.3zM353.5 107c0 29.8 16.2 51.4 38.3 51.4 22.1 0 38.1-21.4 38.1-51.2 0-30-16-51.4-38.3-51.4-21.9 0-38.1 21.9-38.1 51.2zM275.6 8.8c29.3 0 50.2 20.2 50.2 49.1 0 28.9-20.8 49.3-50.2 49.3H240v65.3h-18.7V8.8h54.3zm-1.2 81c18.3 0 31.4-13.3 31.4-31.8s-12.9-31.6-31.4-31.6h-34.3v63.5h34.3v-.1zM29.1 214.8L.4 190.7H202L29.1 214.8zm32.8-42.2v-53.5H85l40.1 53.5h41l-48.5-64.5c15.1-10.8 25-28.5 25-48.4C142.6 26.9 115.9.3 83.1.3h-54v172.4h32.8v-.1zm0-139.7h21.4c14.7 0 26.7 12 26.7 26.7 0 14.8-12 26.7-26.7 26.7H61.9V32.9z"/>
  </g>
</svg>
